<?xml version="1.0" encoding="UTF-8"?>
<svg width="1820px" height="421px" viewBox="0 0 1820 421" version="1.1" xmlns="http://www.w3.org/2000/svg" xmlns:xlink="http://www.w3.org/1999/xlink">
    <!-- Generator: Sketch 42 (36781) - http://www.bohemiancoding.com/sketch -->
    <title>Starcharm</title>
    <desc>Created with Sketch.</desc>
    <defs></defs>
    <g id="Page-1" stroke="none" stroke-width="1" fill="none" fill-rule="evenodd">
        <g id="Starcharm" fill-rule="nonzero" fill="#53BCEA">
            <polygon id="Shape" points="991.452 251.436 1007.705 234.996 1030.456 239.062 1019.842 218.529 1030.743 198.145 1007.934 201.895 991.916 185.229 988.432 208.081 967.631 218.164 988.287 228.54"></polygon>
            <polygon id="Shape" points="960.275 299.369 947.65 274.939 960.614 250.691 933.482 255.151 914.426 235.327 910.287 262.51 885.539 274.508 910.113 286.85 913.875 314.09 933.209 294.532"></polygon>
            <polygon id="Shape" points="821.793 259.389 848.152 232.723 885.057 239.317 867.843 206.01 885.518 172.947 848.523 179.031 822.543 152 816.895 189.063 783.155 205.422 816.662 222.249"></polygon>
            <path d="M1803.809,183.597 C1793.496,173.289 1781.399,168.13 1767.52,168.13 C1742.538,168.13 1725.886,180.029 1717.557,203.824 C1710.017,180.029 1693.762,168.13 1668.775,168.13 C1647.364,168.13 1631.691,177.853 1621.781,197.281 L1621.781,174.08 L1596.203,174.08 L1596.203,412.025 L1621.781,412.025 L1621.781,213.937 C1623.76,202.439 1629.112,192.818 1637.845,185.084 C1646.561,177.351 1656.88,173.484 1668.775,173.484 C1675.915,173.484 1682.06,178.047 1687.214,187.166 C1692.368,196.293 1694.95,207.392 1694.95,220.477 L1694.95,412.025 L1720.526,412.025 L1720.526,215.72 C1721.718,203.824 1726.776,193.813 1735.7,185.679 C1744.623,177.556 1755.227,173.485 1767.519,173.485 C1774.262,173.485 1780.208,178.149 1785.367,187.463 C1790.518,196.787 1793.104,207.791 1793.104,220.478 L1793.104,412.026 L1819.278,412.026 L1819.278,220.478 C1819.278,206.202 1814.115,193.916 1803.809,183.597" id="Shape"></path>
            <path d="M1559.916,167.537 C1547.624,167.537 1538.503,171.7 1532.556,180.029 L1532.556,174.08 L1506.977,174.08 L1506.977,412.025 L1532.556,412.025 L1532.556,193.711 C1534.537,183.801 1539.491,177.26 1547.429,174.08 C1545.047,177.26 1543.858,180.429 1543.858,183.598 C1543.858,193.916 1549.211,199.064 1559.917,199.064 C1570.628,199.064 1575.983,193.917 1575.983,183.598 C1575.982,172.889 1570.627,167.537 1559.916,167.537" id="Shape"></path>
            <path d="M1360.051,165.751 C1325.152,165.751 1295.213,178.149 1270.23,202.931 C1245.246,227.72 1232.756,257.761 1232.756,293.051 C1232.756,327.953 1245.275,357.896 1270.321,382.877 C1295.372,407.862 1325.393,420.355 1360.386,420.355 C1402.532,420.355 1436.326,403.696 1461.774,370.384 L1461.774,412.025 L1487.352,412.025 L1487.352,293.051 C1487.352,257.761 1474.953,227.72 1450.172,202.931 C1425.387,178.149 1395.346,165.751 1360.051,165.751 M1432.028,379.308 C1412.197,403.104 1388.207,415 1360.05,415 C1332.29,415 1308.495,403.104 1288.672,379.308 C1268.834,355.515 1258.927,326.766 1258.927,293.052 C1258.927,259.35 1268.834,230.593 1288.672,206.798 C1308.495,183.004 1332.29,171.106 1360.05,171.106 C1388.206,171.106 1412.196,183.004 1432.028,206.798 C1451.859,230.593 1461.774,259.35 1461.774,293.052 C1461.774,326.766 1451.859,355.515 1432.028,379.308" id="Shape"></path>
            <path d="M1158.402,166.347 C1136.983,166.347 1121.314,176.07 1111.407,195.496 L1111.407,50.349 L1085.826,50.349 L1085.826,412.026 L1111.407,412.026 L1111.407,212.153 C1113.386,200.257 1118.738,190.54 1127.467,183.005 C1136.187,175.476 1146.502,171.702 1158.403,171.702 C1165.141,171.702 1171.19,176.267 1176.544,185.385 C1181.898,194.511 1184.573,205.609 1184.573,218.696 L1184.573,412.027 L1209.56,412.027 L1209.56,218.696 C1209.56,204.819 1204.504,192.627 1194.389,182.113 C1184.274,171.609 1172.277,166.347 1158.402,166.347" id="Shape"></path>
            <path d="M977.418,378.907 C951.375,399.998 922.537,410.538 890.918,410.538 C847.503,410.538 810.458,391.93 779.763,354.725 C749.066,317.518 733.717,272.566 733.717,219.849 C733.717,167.151 749.066,122.346 779.763,85.447 C810.457,48.56 820.836,30.1 890.918,30.1 C922.537,30.1 951.054,40.189 976.49,60.33 C1001.91,80.488 1021.137,107.303 1034.164,140.788 L1065.784,126.839 C1049.045,95.214 1025.004,69.791 993.694,50.566 C962.379,31.353 928.125,21.731 890.918,21.731 C836.34,21.731 789.677,40.957 750.928,79.4 C712.164,117.856 692.791,164.669 692.791,219.849 C692.791,274.43 712.164,321.093 750.928,359.84 C789.677,398.606 836.34,417.976 890.918,417.976 C929.36,417.976 964.397,408.065 996.021,388.207 C1027.648,368.368 1051.83,342.021 1068.575,309.15 L1035.095,297.051 C1022.681,330.535 1003.462,357.835 977.418,378.907" id="Shape"></path>
            <path d="M675.878,183.597 C675.878,172.889 670.523,167.537 659.815,167.537 C647.518,167.537 638.4,171.701 632.452,180.03 L632.452,174.081 L606.872,174.081 L606.872,412.026 L632.452,412.026 L632.452,193.712 C634.431,183.802 639.386,177.261 647.322,174.081 C644.942,177.261 643.755,180.43 643.755,183.598 C643.755,193.917 649.107,199.065 659.815,199.065 C670.523,199.065 675.878,193.916 675.878,183.597" id="Shape"></path>
            <path d="M459.951,165.751 C425.046,165.751 395.109,178.149 370.125,202.931 C345.138,227.72 332.648,257.761 332.648,293.051 C332.648,327.953 345.169,357.896 370.217,382.877 C395.266,407.862 425.289,420.355 460.283,420.355 C502.425,420.355 536.222,403.696 561.672,370.384 L561.672,412.025 L587.251,412.025 L587.251,293.051 C587.251,257.761 574.85,227.72 550.072,202.931 C525.281,178.149 495.24,165.751 459.951,165.751 M531.929,379.308 C512.091,403.104 488.101,415 459.951,415 C432.186,415 408.39,403.104 388.566,379.308 C368.728,355.515 358.822,326.766 358.822,293.052 C358.822,259.35 368.728,230.593 388.566,206.798 C408.39,183.004 432.186,171.106 459.951,171.106 C488.101,171.106 512.091,183.004 531.929,206.798 C551.753,230.593 561.672,259.35 561.672,293.052 C561.672,326.766 551.753,355.515 531.929,379.308" id="Shape"></path>
            <polygon id="Shape" points="310.637 111.026 285.059 111.026 285.059 174.08 264.833 174.08 264.833 179.434 285.059 179.434 285.059 412.025 310.637 412.025 310.637 179.434 329.674 179.434 329.674 174.08 310.637 174.08"></polygon>
            <path d="M959.519,10.992 C959.519,10.992 945.44,17.961 921.568,31.332 C909.631,37.951 895.006,45.707 878.102,54.176 C873.886,56.312 869.454,58.353 864.944,60.542 C860.418,62.701 855.694,64.77 850.892,66.973 C846.052,69.085 841.09,71.248 836.009,73.463 C830.874,75.536 825.663,77.746 820.282,79.835 C809.495,83.952 798.216,88.083 786.364,91.689 C783.407,92.606 780.428,93.53 777.424,94.462 C774.4,95.316 771.354,96.178 768.282,97.045 C762.174,98.886 755.854,100.258 749.505,101.846 C746.339,102.686 743.086,103.218 739.851,103.912 C736.601,104.552 733.349,105.272 730.053,105.857 C726.75,106.386 723.428,106.916 720.085,107.45 C718.415,107.719 716.742,107.986 715.063,108.256 C713.377,108.45 711.685,108.648 709.99,108.843 C706.6,109.233 703.192,109.625 699.768,110.02 C696.342,110.366 692.89,110.578 689.431,110.867 C682.512,111.564 675.508,111.615 668.462,111.845 C640.235,112.451 611.284,108.488 582.803,101.303 C579.201,100.548 575.726,99.289 572.184,98.259 C568.659,97.165 565.107,96.137 561.587,94.994 C558.114,93.701 554.639,92.402 551.157,91.104 C547.678,89.802 544.161,88.592 540.788,86.987 C534.027,83.909 526.976,81.132 520.608,77.606 L510.825,72.579 C509.215,71.817 507.502,70.713 505.829,69.742 L500.79,66.757 L490.656,60.875 L480.691,54.967 C477.232,52.956 473.854,50.827 470.334,48.917 C466.814,47.008 463.293,45.099 459.779,43.194 L454.508,40.34 C452.747,39.398 450.924,38.558 449.135,37.662 C445.543,35.902 441.955,34.141 438.373,32.384 C436.596,31.481 434.773,30.663 432.934,29.876 L427.448,27.47 C423.772,25.908 420.195,24.176 416.455,22.774 C401.684,16.787 386.57,11.806 371.265,8.038 C355.917,4.411 340.448,1.843 325.032,0.733 C321.166,0.56 317.317,0.389 313.486,0.22 C309.646,0.177 305.814,0.287 302.011,0.32 C294.394,0.596 286.844,1.162 279.447,2.345 C264.639,4.533 250.388,8.31 237.114,13.423 C223.844,18.547 211.508,24.898 200.421,32.205 C189.324,39.502 179.442,47.636 170.628,56.008 C169.786,56.805 168.996,57.617 168.174,58.421 C157.856,50.276 145.866,46.186 132.189,46.186 C115.921,46.186 102.24,51.94 91.14,63.438 C80.034,74.942 74.086,88.818 73.296,105.075 C72.495,122.531 78.053,137.199 89.953,149.097 C101.851,160.993 117.912,168.13 138.135,170.512 C167.08,173.69 190.781,186.081 209.222,207.69 C227.664,229.311 236.885,256.573 236.885,289.486 C236.885,323.196 226.566,352.048 205.951,376.036 C185.325,400.039 160.74,412.026 132.189,412.026 C98.874,412.026 69.429,399.932 43.85,375.74 C18.272,351.555 5.481,322.798 5.481,289.486 C5.481,263.714 13.112,240.408 28.383,219.587 C43.647,198.768 63.379,183.998 87.573,175.272 L85.192,169.917 C60.209,179.435 39.879,195.106 24.218,216.913 C8.547,238.726 0.722,262.922 0.722,289.487 C0.722,324.784 13.606,354.922 39.388,379.904 C65.162,404.888 96.097,417.381 132.189,417.381 C168.269,417.381 199.204,404.797 224.987,379.608 C250.76,354.43 263.652,324.388 263.652,289.488 C263.652,253.796 251.951,222.072 228.555,194.306 C205.151,166.553 175.808,150.884 140.514,147.314 C111.56,144.543 97.092,128.483 97.092,99.129 C97.092,84.063 100.558,72.165 107.5,63.44 C114.434,54.718 122.864,50.351 132.781,50.351 C145.073,50.351 155.914,53.985 165.305,61.238 C158.643,67.94 152.576,74.752 147.157,81.422 C143.464,85.95 140.244,90.845 137.845,96.133 C135.434,101.397 133.965,107.185 133.969,112.976 C133.882,118.762 135.528,124.417 138.218,129.065 C140.975,133.696 144.695,137.367 148.82,139.866 C152.905,142.435 157.375,143.913 161.806,144.4 C164.035,144.562 166.244,144.601 168.403,144.165 C169.479,144.033 170.532,143.653 171.557,143.37 C172.58,142.936 173.521,142.646 174.572,141.997 C175.057,141.712 175.632,141.397 176.011,141.122 L177.001,140.35 L177.677,139.81 L178.161,139.328 L179.114,138.376 C180.428,137.168 181.464,135.781 182.49,134.475 C183.037,133.844 183.424,133.119 183.852,132.444 C183.859,132.433 183.865,132.424 183.87,132.415 L183.941,132.444 C184.09,132.168 184.216,131.889 184.362,131.614 C184.607,131.219 184.847,130.824 185.062,130.425 C185.702,129.028 186.456,127.748 186.911,126.403 C187.347,125.296 187.71,124.22 188.033,123.165 C190.051,117.305 191.079,111.276 191.079,105.077 C191.079,89.499 185.782,76.116 175.226,64.9 C175.837,64.35 176.415,63.793 177.036,63.246 C194.427,47.758 216.017,33.784 241.199,24.851 C266.325,15.842 294.849,12.293 323.874,14.778 C338.386,16.063 352.996,18.733 367.536,22.417 C374.751,24.482 382.049,26.419 389.189,29.01 C396.429,31.297 403.476,34.239 410.613,37.019 C414.192,38.384 417.641,40.088 421.169,41.612 L426.44,43.964 C428.206,44.735 429.96,45.532 431.674,46.421 C435.126,48.142 438.585,49.868 442.046,51.593 C443.771,52.469 445.527,53.29 447.229,54.214 L452.323,57.019 C455.72,58.89 459.121,60.762 462.526,62.637 C465.929,64.512 469.208,66.611 472.56,68.59 L482.604,74.634 L492.708,80.568 C496.109,82.498 499.393,84.593 502.89,86.384 L513.403,91.716 C520.325,95.465 527.633,98.296 534.772,101.478 C538.321,103.126 542.022,104.38 545.684,105.726 C549.346,107.06 553.006,108.393 556.659,109.725 C560.365,110.903 564.104,111.964 567.813,113.086 C571.54,114.144 575.202,115.426 578.991,116.202 C586.524,117.915 593.964,119.912 601.546,121.022 C605.321,121.658 609.074,122.36 612.836,122.936 C616.619,123.369 620.391,123.8 624.15,124.232 L629.782,124.876 C631.661,125.031 633.545,125.109 635.42,125.229 C639.174,125.449 642.915,125.666 646.642,125.885 C650.373,126.05 654.095,125.963 657.802,126.012 C661.506,125.989 665.201,126.158 668.87,125.899 C698.257,124.858 726.493,120.42 752.522,113.56 C778.574,106.735 802.538,97.971 824.091,88.679 C845.656,79.393 864.784,69.476 881.455,60.241 C898.118,50.974 912.304,42.31 923.883,35.028 C935.446,27.72 944.437,21.83 950.566,17.818 C956.69,13.804 959.519,10.992 959.519,10.992 M187.511,105.67 C187.511,112.85 186.138,119.648 183.44,126.085 C183.006,126.898 182.501,127.699 182.048,128.556 C181.252,129.692 180.49,130.923 179.523,132.044 C178.546,133.157 177.576,134.342 176.355,135.344 C175.77,135.836 175.184,136.485 174.577,136.872 L173.547,137.589 C173.201,137.806 172.859,137.944 172.511,138.131 C169.695,139.599 166.089,139.955 162.526,139.466 C158.945,138.893 155.286,137.5 152.019,135.207 C148.714,132.98 145.842,129.832 143.778,126.078 C141.799,122.283 140.666,117.843 140.92,113.238 C141.095,108.637 142.443,103.943 144.69,99.537 C146.918,95.114 149.917,90.913 153.42,86.977 C159.192,80.502 165.44,73.957 172.281,67.589 C182.422,78.318 187.511,91.004 187.511,105.67" id="Shape"></path>
        </g>
    </g>
</svg>